<mxfile host="app.diagrams.net" modified="2023-10-05T16:55:37.896Z" agent="Mozilla/5.0 (Windows NT 10.0; Win64; x64) AppleWebKit/537.36 (KHTML, like Gecko) Chrome/116.0.0.0 Safari/537.36" etag="lEoarPgSo10nNuS5yvxQ" version="22.0.2" type="device">
  <diagram name="Page-1" id="13e1069c-82ec-6db2-03f1-153e76fe0fe0">
    <mxGraphModel dx="2765" dy="1533" grid="1" gridSize="10" guides="1" tooltips="1" connect="1" arrows="1" fold="1" page="1" pageScale="1" pageWidth="1100" pageHeight="850" background="none" math="0" shadow="0">
      <root>
        <mxCell id="0" />
        <mxCell id="1" parent="0" />
        <mxCell id="jirRao2P084-9lLm73-w-5" value="" style="html=1;points=[[0,0,0,0,5],[0,1,0,0,-5],[1,0,0,0,5],[1,1,0,0,-5]];perimeter=orthogonalPerimeter;outlineConnect=0;targetShapes=umlLifeline;portConstraint=eastwest;newEdgeStyle={&quot;curved&quot;:0,&quot;rounded&quot;:0};" vertex="1" parent="1">
          <mxGeometry x="130" y="230" width="20" height="1210" as="geometry" />
        </mxCell>
        <mxCell id="jirRao2P084-9lLm73-w-9" value="" style="endArrow=none;dashed=1;html=1;rounded=0;" edge="1" parent="1" source="jirRao2P084-9lLm73-w-5" target="jirRao2P084-9lLm73-w-67">
          <mxGeometry width="50" height="50" relative="1" as="geometry">
            <mxPoint x="130" y="190" as="sourcePoint" />
            <mxPoint x="140" y="70" as="targetPoint" />
          </mxGeometry>
        </mxCell>
        <mxCell id="jirRao2P084-9lLm73-w-19" value="open Microsoft Visio" style="html=1;verticalAlign=bottom;endArrow=block;curved=0;rounded=0;" edge="1" parent="1" source="jirRao2P084-9lLm73-w-5">
          <mxGeometry width="80" relative="1" as="geometry">
            <mxPoint x="170" y="460" as="sourcePoint" />
            <mxPoint x="410" y="460" as="targetPoint" />
          </mxGeometry>
        </mxCell>
        <mxCell id="jirRao2P084-9lLm73-w-24" value="showMainPanel()" style="html=1;verticalAlign=bottom;endArrow=block;curved=0;rounded=0;" edge="1" parent="1" target="jirRao2P084-9lLm73-w-37">
          <mxGeometry width="80" relative="1" as="geometry">
            <mxPoint x="410" y="400" as="sourcePoint" />
            <mxPoint x="530" y="400" as="targetPoint" />
          </mxGeometry>
        </mxCell>
        <mxCell id="jirRao2P084-9lLm73-w-26" value="Microsoft Visio" style="shape=umlLifeline;perimeter=lifelinePerimeter;whiteSpace=wrap;html=1;container=0;dropTarget=0;collapsible=0;recursiveResize=0;outlineConnect=0;portConstraint=eastwest;newEdgeStyle={&quot;edgeStyle&quot;:&quot;elbowEdgeStyle&quot;,&quot;elbow&quot;:&quot;vertical&quot;,&quot;curved&quot;:0,&quot;rounded&quot;:0};" vertex="1" parent="1">
          <mxGeometry x="350" y="230" width="100" height="1230" as="geometry" />
        </mxCell>
        <mxCell id="jirRao2P084-9lLm73-w-10" value="" style="html=1;points=[[0,0,0,0,5],[0,1,0,0,-5],[1,0,0,0,5],[1,1,0,0,-5]];perimeter=orthogonalPerimeter;outlineConnect=0;targetShapes=umlLifeline;portConstraint=eastwest;newEdgeStyle={&quot;curved&quot;:0,&quot;rounded&quot;:0};" vertex="1" parent="jirRao2P084-9lLm73-w-26">
          <mxGeometry x="40" y="40" width="20" height="520" as="geometry" />
        </mxCell>
        <mxCell id="jirRao2P084-9lLm73-w-101" value="" style="shape=umlDestroy;whiteSpace=wrap;html=1;strokeWidth=3;targetShapes=umlLifeline;" vertex="1" parent="jirRao2P084-9lLm73-w-26">
          <mxGeometry x="35" y="1200" width="30" height="30" as="geometry" />
        </mxCell>
        <mxCell id="jirRao2P084-9lLm73-w-27" value="MainPanel" style="shape=umlLifeline;perimeter=lifelinePerimeter;whiteSpace=wrap;html=1;container=0;dropTarget=0;collapsible=0;recursiveResize=0;outlineConnect=0;portConstraint=eastwest;newEdgeStyle={&quot;edgeStyle&quot;:&quot;elbowEdgeStyle&quot;,&quot;elbow&quot;:&quot;vertical&quot;,&quot;curved&quot;:0,&quot;rounded&quot;:0};" vertex="1" parent="1">
          <mxGeometry x="530" y="300" width="100" height="1140" as="geometry" />
        </mxCell>
        <mxCell id="jirRao2P084-9lLm73-w-37" value="" style="html=1;points=[[0,0,0,0,5],[0,1,0,0,-5],[1,0,0,0,5],[1,1,0,0,-5]];perimeter=orthogonalPerimeter;outlineConnect=0;targetShapes=umlLifeline;portConstraint=eastwest;newEdgeStyle={&quot;curved&quot;:0,&quot;rounded&quot;:0};" vertex="1" parent="jirRao2P084-9lLm73-w-27">
          <mxGeometry x="45" y="60" width="10" height="220" as="geometry" />
        </mxCell>
        <mxCell id="jirRao2P084-9lLm73-w-59" value="" style="html=1;verticalAlign=bottom;endArrow=block;curved=0;rounded=0;" edge="1" parent="jirRao2P084-9lLm73-w-27" source="jirRao2P084-9lLm73-w-37" target="jirRao2P084-9lLm73-w-37">
          <mxGeometry width="80" relative="1" as="geometry">
            <mxPoint x="65" y="150" as="sourcePoint" />
            <mxPoint x="230" y="150" as="targetPoint" />
            <Array as="points">
              <mxPoint x="100" y="250" />
            </Array>
          </mxGeometry>
        </mxCell>
        <mxCell id="jirRao2P084-9lLm73-w-60" value="openFile()" style="html=1;verticalAlign=bottom;endArrow=block;curved=0;rounded=0;" edge="1" parent="jirRao2P084-9lLm73-w-27" source="jirRao2P084-9lLm73-w-37" target="jirRao2P084-9lLm73-w-37">
          <mxGeometry width="80" relative="1" as="geometry">
            <mxPoint x="90" y="170" as="sourcePoint" />
            <mxPoint x="90" y="190" as="targetPoint" />
            <Array as="points">
              <mxPoint x="150" y="170" />
            </Array>
          </mxGeometry>
        </mxCell>
        <mxCell id="jirRao2P084-9lLm73-w-93" value="" style="html=1;points=[[0,0,0,0,5],[0,1,0,0,-5],[1,0,0,0,5],[1,1,0,0,-5]];perimeter=orthogonalPerimeter;outlineConnect=0;targetShapes=umlLifeline;portConstraint=eastwest;newEdgeStyle={&quot;curved&quot;:0,&quot;rounded&quot;:0};" vertex="1" parent="jirRao2P084-9lLm73-w-27">
          <mxGeometry x="45" y="1040" width="10" height="50" as="geometry" />
        </mxCell>
        <mxCell id="jirRao2P084-9lLm73-w-94" value="saveFile()" style="html=1;verticalAlign=bottom;endArrow=block;curved=0;rounded=0;" edge="1" parent="jirRao2P084-9lLm73-w-27" source="jirRao2P084-9lLm73-w-93" target="jirRao2P084-9lLm73-w-93">
          <mxGeometry width="80" relative="1" as="geometry">
            <mxPoint x="80" y="1035" as="sourcePoint" />
            <mxPoint x="80" y="1140" as="targetPoint" />
            <Array as="points">
              <mxPoint x="130" y="1060" />
            </Array>
          </mxGeometry>
        </mxCell>
        <mxCell id="jirRao2P084-9lLm73-w-29" value="Canvas" style="shape=umlLifeline;perimeter=lifelinePerimeter;whiteSpace=wrap;html=1;container=0;dropTarget=0;collapsible=0;recursiveResize=0;outlineConnect=0;portConstraint=eastwest;newEdgeStyle={&quot;edgeStyle&quot;:&quot;elbowEdgeStyle&quot;,&quot;elbow&quot;:&quot;vertical&quot;,&quot;curved&quot;:0,&quot;rounded&quot;:0};" vertex="1" parent="1">
          <mxGeometry x="870" y="425" width="100" height="1015" as="geometry" />
        </mxCell>
        <mxCell id="jirRao2P084-9lLm73-w-30" value="" style="shape=umlDestroy;whiteSpace=wrap;html=1;strokeWidth=3;targetShapes=umlLifeline;" vertex="1" parent="jirRao2P084-9lLm73-w-29">
          <mxGeometry x="35" y="1005" width="30" height="30" as="geometry" />
        </mxCell>
        <mxCell id="jirRao2P084-9lLm73-w-39" value="" style="html=1;points=[[0,0,0,0,5],[0,1,0,0,-5],[1,0,0,0,5],[1,1,0,0,-5]];perimeter=orthogonalPerimeter;outlineConnect=0;targetShapes=umlLifeline;portConstraint=eastwest;newEdgeStyle={&quot;curved&quot;:0,&quot;rounded&quot;:0};" vertex="1" parent="jirRao2P084-9lLm73-w-29">
          <mxGeometry x="45" y="65" width="10" height="255" as="geometry" />
        </mxCell>
        <mxCell id="jirRao2P084-9lLm73-w-50" value="resize()" style="html=1;verticalAlign=bottom;endArrow=block;curved=0;rounded=0;" edge="1" parent="jirRao2P084-9lLm73-w-29" source="jirRao2P084-9lLm73-w-39" target="jirRao2P084-9lLm73-w-39">
          <mxGeometry width="80" relative="1" as="geometry">
            <mxPoint x="80" y="115" as="sourcePoint" />
            <mxPoint x="280" y="115" as="targetPoint" />
            <Array as="points">
              <mxPoint x="140" y="245" />
            </Array>
          </mxGeometry>
        </mxCell>
        <mxCell id="jirRao2P084-9lLm73-w-31" value="createCanvas()" style="html=1;verticalAlign=bottom;endArrow=block;curved=0;rounded=0;entryX=0;entryY=0;entryDx=0;entryDy=5;entryPerimeter=0;" edge="1" parent="1" source="jirRao2P084-9lLm73-w-36" target="jirRao2P084-9lLm73-w-39">
          <mxGeometry width="80" relative="1" as="geometry">
            <mxPoint x="760.0003448275863" y="500" as="sourcePoint" />
            <mxPoint x="870" y="500" as="targetPoint" />
          </mxGeometry>
        </mxCell>
        <mxCell id="jirRao2P084-9lLm73-w-33" value="CanvasPanel" style="shape=umlLifeline;perimeter=lifelinePerimeter;whiteSpace=wrap;html=1;container=0;dropTarget=0;collapsible=0;recursiveResize=0;outlineConnect=0;portConstraint=eastwest;newEdgeStyle={&quot;edgeStyle&quot;:&quot;elbowEdgeStyle&quot;,&quot;elbow&quot;:&quot;vertical&quot;,&quot;curved&quot;:0,&quot;rounded&quot;:0};" vertex="1" parent="1">
          <mxGeometry x="660" y="360" width="100" height="1080" as="geometry" />
        </mxCell>
        <mxCell id="jirRao2P084-9lLm73-w-36" value="" style="html=1;points=[[0,0,0,0,5],[0,1,0,0,-5],[1,0,0,0,5],[1,1,0,0,-5]];perimeter=orthogonalPerimeter;outlineConnect=0;targetShapes=umlLifeline;portConstraint=eastwest;newEdgeStyle={&quot;curved&quot;:0,&quot;rounded&quot;:0};" vertex="1" parent="jirRao2P084-9lLm73-w-33">
          <mxGeometry x="45" y="80" width="10" height="170" as="geometry" />
        </mxCell>
        <mxCell id="jirRao2P084-9lLm73-w-35" value="showCanvasPanel()" style="html=1;verticalAlign=bottom;endArrow=block;curved=0;rounded=0;" edge="1" parent="1" source="jirRao2P084-9lLm73-w-10" target="jirRao2P084-9lLm73-w-36">
          <mxGeometry width="80" relative="1" as="geometry">
            <mxPoint x="400" y="470" as="sourcePoint" />
            <mxPoint x="679.5" y="470" as="targetPoint" />
          </mxGeometry>
        </mxCell>
        <mxCell id="jirRao2P084-9lLm73-w-40" value="deleteCanvas()" style="html=1;verticalAlign=bottom;endArrow=block;curved=0;rounded=0;" edge="1" parent="1" source="jirRao2P084-9lLm73-w-39" target="jirRao2P084-9lLm73-w-36">
          <mxGeometry width="80" relative="1" as="geometry">
            <mxPoint x="920" y="560" as="sourcePoint" />
            <mxPoint x="720" y="560" as="targetPoint" />
          </mxGeometry>
        </mxCell>
        <mxCell id="jirRao2P084-9lLm73-w-41" value="addFigure()" style="html=1;verticalAlign=bottom;endArrow=block;curved=0;rounded=0;" edge="1" parent="1" source="jirRao2P084-9lLm73-w-72" target="jirRao2P084-9lLm73-w-44">
          <mxGeometry width="80" relative="1" as="geometry">
            <mxPoint x="925" y="850" as="sourcePoint" />
            <mxPoint x="1120" y="860" as="targetPoint" />
            <mxPoint as="offset" />
          </mxGeometry>
        </mxCell>
        <mxCell id="jirRao2P084-9lLm73-w-42" value="Figure" style="shape=umlLifeline;perimeter=lifelinePerimeter;whiteSpace=wrap;html=1;container=0;dropTarget=0;collapsible=0;recursiveResize=0;outlineConnect=0;portConstraint=eastwest;newEdgeStyle={&quot;edgeStyle&quot;:&quot;elbowEdgeStyle&quot;,&quot;elbow&quot;:&quot;vertical&quot;,&quot;curved&quot;:0,&quot;rounded&quot;:0};" vertex="1" parent="1">
          <mxGeometry x="1200" y="500" width="100" height="940" as="geometry" />
        </mxCell>
        <mxCell id="jirRao2P084-9lLm73-w-43" value="" style="shape=umlDestroy;whiteSpace=wrap;html=1;strokeWidth=3;targetShapes=umlLifeline;" vertex="1" parent="jirRao2P084-9lLm73-w-42">
          <mxGeometry x="35" y="930" width="30" height="30" as="geometry" />
        </mxCell>
        <mxCell id="jirRao2P084-9lLm73-w-44" value="" style="html=1;points=[[0,0,0,0,5],[0,1,0,0,-5],[1,0,0,0,5],[1,1,0,0,-5]];perimeter=orthogonalPerimeter;outlineConnect=0;targetShapes=umlLifeline;portConstraint=eastwest;newEdgeStyle={&quot;curved&quot;:0,&quot;rounded&quot;:0};" vertex="1" parent="jirRao2P084-9lLm73-w-42">
          <mxGeometry x="45" y="420" width="10" height="140" as="geometry" />
        </mxCell>
        <mxCell id="jirRao2P084-9lLm73-w-83" value="" style="html=1;points=[[0,0,0,0,5],[0,1,0,0,-5],[1,0,0,0,5],[1,1,0,0,-5]];perimeter=orthogonalPerimeter;outlineConnect=0;targetShapes=umlLifeline;portConstraint=eastwest;newEdgeStyle={&quot;curved&quot;:0,&quot;rounded&quot;:0};" vertex="1" parent="jirRao2P084-9lLm73-w-42">
          <mxGeometry x="45" y="600" width="10" height="140" as="geometry" />
        </mxCell>
        <mxCell id="jirRao2P084-9lLm73-w-87" value="setLineThickness()" style="html=1;verticalAlign=bottom;endArrow=block;curved=0;rounded=0;" edge="1" parent="jirRao2P084-9lLm73-w-42" source="jirRao2P084-9lLm73-w-83" target="jirRao2P084-9lLm73-w-83">
          <mxGeometry x="-0.0006" width="80" relative="1" as="geometry">
            <mxPoint x="130" y="630" as="sourcePoint" />
            <mxPoint x="280" y="630" as="targetPoint" />
            <mxPoint as="offset" />
            <Array as="points">
              <mxPoint x="270" y="670" />
            </Array>
          </mxGeometry>
        </mxCell>
        <mxCell id="jirRao2P084-9lLm73-w-88" value="" style="html=1;verticalAlign=bottom;endArrow=block;curved=0;rounded=0;" edge="1" parent="jirRao2P084-9lLm73-w-42" source="jirRao2P084-9lLm73-w-83" target="jirRao2P084-9lLm73-w-83">
          <mxGeometry x="0.0769" y="10" width="80" relative="1" as="geometry">
            <mxPoint x="100" y="710" as="sourcePoint" />
            <mxPoint x="100" y="730" as="targetPoint" />
            <mxPoint as="offset" />
            <Array as="points">
              <mxPoint x="110" y="710" />
            </Array>
          </mxGeometry>
        </mxCell>
        <mxCell id="jirRao2P084-9lLm73-w-99" value="" style="html=1;verticalAlign=bottom;endArrow=block;curved=0;rounded=0;" edge="1" parent="jirRao2P084-9lLm73-w-42" source="jirRao2P084-9lLm73-w-83" target="jirRao2P084-9lLm73-w-83">
          <mxGeometry x="0.0769" y="10" width="80" relative="1" as="geometry">
            <mxPoint x="320" y="620" as="sourcePoint" />
            <mxPoint x="320" y="700" as="targetPoint" />
            <mxPoint as="offset" />
            <Array as="points">
              <mxPoint x="320" y="620" />
            </Array>
          </mxGeometry>
        </mxCell>
        <mxCell id="jirRao2P084-9lLm73-w-64" value="saveFile()" style="text;html=1;align=center;verticalAlign=middle;resizable=0;points=[];autosize=1;strokeColor=none;fillColor=none;" vertex="1" parent="1">
          <mxGeometry x="590" y="410" width="80" height="30" as="geometry" />
        </mxCell>
        <mxCell id="jirRao2P084-9lLm73-w-66" value="Add Figure" style="html=1;verticalAlign=bottom;endArrow=block;curved=0;rounded=0;" edge="1" parent="1" source="jirRao2P084-9lLm73-w-5" target="jirRao2P084-9lLm73-w-70">
          <mxGeometry x="-0.0006" width="80" relative="1" as="geometry">
            <mxPoint x="540" y="829.71" as="sourcePoint" />
            <mxPoint x="915" y="865" as="targetPoint" />
            <mxPoint as="offset" />
          </mxGeometry>
        </mxCell>
        <mxCell id="jirRao2P084-9lLm73-w-67" value="User" style="rounded=0;whiteSpace=wrap;html=1;" vertex="1" parent="1">
          <mxGeometry x="80" y="170" width="120" height="60" as="geometry" />
        </mxCell>
        <mxCell id="jirRao2P084-9lLm73-w-69" value="Delete Figure" style="html=1;verticalAlign=bottom;endArrow=block;curved=0;rounded=0;" edge="1" parent="1" source="jirRao2P084-9lLm73-w-5" target="jirRao2P084-9lLm73-w-75">
          <mxGeometry x="-0.0006" width="80" relative="1" as="geometry">
            <mxPoint x="150" y="1050" as="sourcePoint" />
            <mxPoint x="1085" y="1050" as="targetPoint" />
            <mxPoint as="offset" />
          </mxGeometry>
        </mxCell>
        <mxCell id="jirRao2P084-9lLm73-w-70" value="FigurePanel" style="shape=umlLifeline;perimeter=lifelinePerimeter;whiteSpace=wrap;html=1;container=0;dropTarget=0;collapsible=0;recursiveResize=0;outlineConnect=0;portConstraint=eastwest;newEdgeStyle={&quot;edgeStyle&quot;:&quot;elbowEdgeStyle&quot;,&quot;elbow&quot;:&quot;vertical&quot;,&quot;curved&quot;:0,&quot;rounded&quot;:0};" vertex="1" parent="1">
          <mxGeometry x="1040" y="470" width="100" height="970" as="geometry" />
        </mxCell>
        <mxCell id="jirRao2P084-9lLm73-w-72" value="" style="html=1;points=[[0,0,0,0,5],[0,1,0,0,-5],[1,0,0,0,5],[1,1,0,0,-5]];perimeter=orthogonalPerimeter;outlineConnect=0;targetShapes=umlLifeline;portConstraint=eastwest;newEdgeStyle={&quot;curved&quot;:0,&quot;rounded&quot;:0};" vertex="1" parent="jirRao2P084-9lLm73-w-70">
          <mxGeometry x="45" y="310" width="10" height="170" as="geometry" />
        </mxCell>
        <mxCell id="jirRao2P084-9lLm73-w-75" value="" style="html=1;points=[[0,0,0,0,5],[0,1,0,0,-5],[1,0,0,0,5],[1,1,0,0,-5]];perimeter=orthogonalPerimeter;outlineConnect=0;targetShapes=umlLifeline;portConstraint=eastwest;newEdgeStyle={&quot;curved&quot;:0,&quot;rounded&quot;:0};" vertex="1" parent="jirRao2P084-9lLm73-w-70">
          <mxGeometry x="45" y="550" width="10" height="60" as="geometry" />
        </mxCell>
        <mxCell id="jirRao2P084-9lLm73-w-78" value="" style="html=1;points=[[0,0,0,0,5],[0,1,0,0,-5],[1,0,0,0,5],[1,1,0,0,-5]];perimeter=orthogonalPerimeter;outlineConnect=0;targetShapes=umlLifeline;portConstraint=eastwest;newEdgeStyle={&quot;curved&quot;:0,&quot;rounded&quot;:0};" vertex="1" parent="jirRao2P084-9lLm73-w-70">
          <mxGeometry x="45" y="660" width="10" height="170" as="geometry" />
        </mxCell>
        <mxCell id="jirRao2P084-9lLm73-w-76" value="deleteFigure()" style="html=1;verticalAlign=bottom;endArrow=block;curved=0;rounded=0;" edge="1" parent="1" source="jirRao2P084-9lLm73-w-75" target="jirRao2P084-9lLm73-w-44">
          <mxGeometry width="80" relative="1" as="geometry">
            <mxPoint x="1140" y="1060" as="sourcePoint" />
            <mxPoint x="1290" y="1060" as="targetPoint" />
            <mxPoint as="offset" />
          </mxGeometry>
        </mxCell>
        <mxCell id="jirRao2P084-9lLm73-w-77" value="Change Figure" style="html=1;verticalAlign=bottom;endArrow=block;curved=0;rounded=0;" edge="1" parent="1" source="jirRao2P084-9lLm73-w-5" target="jirRao2P084-9lLm73-w-78">
          <mxGeometry x="-0.0006" width="80" relative="1" as="geometry">
            <mxPoint x="150" y="1150" as="sourcePoint" />
            <mxPoint x="1085" y="1150" as="targetPoint" />
            <mxPoint as="offset" />
          </mxGeometry>
        </mxCell>
        <mxCell id="jirRao2P084-9lLm73-w-79" value="rotate()" style="html=1;verticalAlign=bottom;endArrow=block;curved=0;rounded=0;" edge="1" parent="1" source="jirRao2P084-9lLm73-w-78" target="jirRao2P084-9lLm73-w-83">
          <mxGeometry x="-0.0006" width="80" relative="1" as="geometry">
            <mxPoint x="880" y="1250" as="sourcePoint" />
            <mxPoint x="1815" y="1250" as="targetPoint" />
            <mxPoint as="offset" />
          </mxGeometry>
        </mxCell>
        <mxCell id="jirRao2P084-9lLm73-w-84" value="scale()" style="html=1;verticalAlign=bottom;endArrow=block;curved=0;rounded=0;" edge="1" parent="1" source="jirRao2P084-9lLm73-w-78">
          <mxGeometry x="-0.0006" width="80" relative="1" as="geometry">
            <mxPoint x="1089.810344827586" y="1170" as="sourcePoint" />
            <mxPoint x="1245" y="1170" as="targetPoint" />
            <mxPoint as="offset" />
          </mxGeometry>
        </mxCell>
        <mxCell id="jirRao2P084-9lLm73-w-86" value="changeThickness()" style="html=1;verticalAlign=bottom;endArrow=block;curved=0;rounded=0;" edge="1" parent="1">
          <mxGeometry x="-0.0006" width="80" relative="1" as="geometry">
            <mxPoint x="1095" y="1150" as="sourcePoint" />
            <mxPoint x="1245" y="1150" as="targetPoint" />
            <mxPoint as="offset" />
          </mxGeometry>
        </mxCell>
        <mxCell id="jirRao2P084-9lLm73-w-89" value="setFillColor()" style="text;html=1;align=center;verticalAlign=middle;resizable=0;points=[];autosize=1;strokeColor=none;fillColor=none;" vertex="1" parent="1">
          <mxGeometry x="1275" y="1128" width="90" height="30" as="geometry" />
        </mxCell>
        <mxCell id="jirRao2P084-9lLm73-w-90" value="changeFillColor()" style="html=1;verticalAlign=bottom;endArrow=block;curved=0;rounded=0;" edge="1" parent="1">
          <mxGeometry x="-0.0006" width="80" relative="1" as="geometry">
            <mxPoint x="1095" y="1190" as="sourcePoint" />
            <mxPoint x="1245" y="1190" as="targetPoint" />
            <mxPoint as="offset" />
          </mxGeometry>
        </mxCell>
        <mxCell id="jirRao2P084-9lLm73-w-91" value="Save FIle" style="html=1;verticalAlign=bottom;endArrow=block;curved=0;rounded=0;" edge="1" parent="1" target="jirRao2P084-9lLm73-w-93">
          <mxGeometry x="-0.0006" width="80" relative="1" as="geometry">
            <mxPoint x="150" y="1380" as="sourcePoint" />
            <mxPoint x="1085" y="1380" as="targetPoint" />
            <mxPoint as="offset" />
          </mxGeometry>
        </mxCell>
        <mxCell id="jirRao2P084-9lLm73-w-28" value="" style="shape=umlDestroy;whiteSpace=wrap;html=1;strokeWidth=3;targetShapes=umlLifeline;" vertex="1" parent="1">
          <mxGeometry x="565" y="1430" width="30" height="30" as="geometry" />
        </mxCell>
        <mxCell id="jirRao2P084-9lLm73-w-34" value="" style="shape=umlDestroy;whiteSpace=wrap;html=1;strokeWidth=3;targetShapes=umlLifeline;" vertex="1" parent="1">
          <mxGeometry x="695" y="1430" width="30" height="30" as="geometry" />
        </mxCell>
        <mxCell id="jirRao2P084-9lLm73-w-71" value="" style="shape=umlDestroy;whiteSpace=wrap;html=1;strokeWidth=3;targetShapes=umlLifeline;" vertex="1" parent="1">
          <mxGeometry x="1075" y="1430" width="30" height="30" as="geometry" />
        </mxCell>
        <mxCell id="jirRao2P084-9lLm73-w-100" value="changeScale()" style="text;html=1;align=center;verticalAlign=middle;resizable=0;points=[];autosize=1;strokeColor=none;fillColor=none;" vertex="1" parent="1">
          <mxGeometry x="1490" y="1128" width="100" height="30" as="geometry" />
        </mxCell>
      </root>
    </mxGraphModel>
  </diagram>
</mxfile>
